{"title":"16.Wishes.2010.720p.BRRip.H264.Feel-Free","uid":5965019,"size":1420553426,"categoryP":"video","categoryS":"hd___movies","magnet":"?xt=urn:btih:631ddfb6dd18151cfe7105d78ecc34c548586206&amp;dn=16.Wishes.2010.720p.BRRip.H264.Feel-Free&amp;tr=udp%3A%2F%2Ftracker.openbittorrent.com%3A80&amp;tr=udp%3A%2F%2Fopen.demonii.com%3A1337&amp;tr=udp%3A%2F%2Ftracker.coppersurfer.tk%3A6969&amp;tr=udp%3A%2F%2Fexodus.desync.com%3A6969","seeders":5,"leechers":3,"uploader":"deffjam555","files":8,"time":1290040906,"description":"Genre: Family | Fantasy\nLanguage:English\nIMDb:http://www.imdb.com/title/tt1646876\nSource:BluRay.x264.THUGLiNE\n\nGeneral\nComplete name :16.Wishes.2010.720p.BRRip.H264.Feel-Free\nFormat : MPEG-4\nFormat profile : Base Media\nCodec ID : mp42\nFile size : 1.32 GiB\nDuration : 1h 30mn\nOverall bit rate : 2 094 Kbps\nVideo #1\nCodec ID : avc1\nCodec ID/Info : Advanced Video Coding\nDuration : 1h 30mn\nBit rate mode : Variable\nBit rate : 1 612 Kbps\nWidth : 1 280 pixels\nHeight : 720 pixels\nDisplay aspect ratio : 16:9\nFrame rate mode : Constant\nFrame rate : 23.976 fps\nResolution : 24 bits\nColorimetry : 4:2:0\nScan type : Progressive\nBits/(Pixel*Frame) : 0.073\nStream size : 1.01 GiB (77%)\nAudio #2\nID : 2\nFormat : AAC\nFormat/Info : Advanced Audio Codec\nFormat version : Version 4\nFormat profile : LC\nFormat settings, SBR : No\nCodec ID : 40\nDuration : 1h 30mn\nBit rate mode : Constant\nBit rate : 477 Kbps\nNominal bit rate : 480 Kbps\nChannel(s) : 6 channels\nChannel positions : Front: L C R, Rear: L R, LFE\nSampling rate : 48.0 KHz\nResolution : 16 bits\nStream size : 308 MiB (23%)\n\nPlot:\nDebby Ryan (Disney's The Suite Life on Deck) stars with\nJean-Luc Bilodeau (Kyle XY) in this spellbinding comedy\nabout what happens when your most outrageous wishes come\noutrageously true! Abby Jensen has been dreaming about her\n&quot;sweet 16&quot; since she was a little girl but it starts out\nanything but sweet. Then she receives a box of mysteriously\nmagical birthday candles. And suddenly, Abby's every wish\nis instantly granted: the cherry-red sports car, the way-cool\nclothes, the uber-popularity at school. But when Abby makes\na wish that turns her perfect new life totally upside down\nshe and her best friend Jay have just one chance to make\nthings right and to learn you have to be careful what you\nwish for really, really careful!\n\nTRAILER:http://www.imdb.com/video/screenplay/vi1558055193/\n\n\n\nscreens\n &lt;a href=&quot;\nhttp://rapidhdd.com/images/1830vlcsnap-2010-11-18-13h28m04s212.png&quot; rel=&quot;nofollow&quot; target=&quot;_NEW&quot;&gt;\nhttp://rapidhdd.com/images/1830vlcsnap-2010-11-18-13h28m04s212.png&lt;/a&gt;\n &lt;a href=&quot;\nhttp://www.rapidhdd.com/images/94077vlcsnap-2010-11-18-13h28m56s220.png&quot; rel=&quot;nofollow&quot; target=&quot;_NEW&quot;&gt;\nhttp://www.rapidhdd.com/images/94077vlcsnap-2010-11-18-13h28m56s220.png&lt;/a&gt;\n &lt;a href=&quot;\nhttp://www.rapidhdd.com/images/352384vlcsnap-2010-11-18-13h29m35s90.png&quot; rel=&quot;nofollow&quot; target=&quot;_NEW&quot;&gt;\nhttp://www.rapidhdd.com/images/352384vlcsnap-2010-11-18-13h29m35s90.png&lt;/a&gt;\n &lt;a href=&quot;\nhttp://www.rapidhdd.com/images/372922vlcsnap-2010-11-18-13h30m15s222.png&quot; rel=&quot;nofollow&quot; target=&quot;_NEW&quot;&gt;\nhttp://www.rapidhdd.com/images/372922vlcsnap-2010-11-18-13h30m15s222.png&lt;/a&gt;\n &lt;a href=&quot;\nhttp://www.rapidhdd.com/images/180048vlcsnap-2010-11-18-13h30m49s75.png&quot; rel=&quot;nofollow&quot; target=&quot;_NEW&quot;&gt;\nhttp://www.rapidhdd.com/images/180048vlcsnap-2010-11-18-13h30m49s75.png&lt;/a&gt;","torrent":{"xt":"urn:btih:631ddfb6dd18151cfe7105d78ecc34c548586206","amp;dn":"16.Wishes.2010.720p.BRRip.H264.Feel-Free","amp;tr":["udp%3A%2F%2Ftracker.openbittorrent.com%3A80","udp%3A%2F%2Fopen.demonii.com%3A1337","udp%3A%2F%2Ftracker.coppersurfer.tk%3A6969","udp%3A%2F%2Fexodus.desync.com%3A6969"],"infoHash":"631ddfb6dd18151cfe7105d78ecc34c548586206","infoHashBuffer":{"type":"Buffer","data":[99,29,223,182,221,24,21,28,254,113,5,215,142,204,52,197,72,88,98,6]},"announce":[],"urlList":[]}}